<svg width="18" height="18" viewBox="0 0 18 18" fill="none" xmlns="http://www.w3.org/2000/svg">
<path d="M0 9C0 6.20435 0 4.80653 0.456723 3.7039C1.06569 2.23373 2.23373 1.06569 3.7039 0.456723C4.80653 0 6.20435 0 9 0V0C11.7956 0 13.1935 0 14.2961 0.456723C15.7663 1.06569 16.9343 2.23373 17.5433 3.7039C18 4.80653 18 6.20435 18 9V9C18 11.7956 18 13.1935 17.5433 14.2961C16.9343 15.7663 15.7663 16.9343 14.2961 17.5433C13.1935 18 11.7956 18 9 18V18C6.20435 18 4.80653 18 3.7039 17.5433C2.23373 16.9343 1.06569 15.7663 0.456723 14.2961C0 13.1935 0 11.7956 0 9V9Z" fill="white"/>
<path d="M3 7V12C3 14.2091 4.79086 16 7 16H11C13.2091 16 15 14.2091 15 12V7" stroke="#C2C2C8" stroke-width="2" stroke-linecap="round"/>
<rect x="2" y="2" width="14" height="2" rx="1" fill="#C2C2C8"/>
<rect x="8" y="6" width="7" height="2" rx="1" transform="rotate(90 8 6)" fill="#C2C2C8"/>
<rect x="12" y="6" width="7" height="2" rx="1" transform="rotate(90 12 6)" fill="#C2C2C8"/>
<rect x="8" y="1" width="2" height="3" rx="1" fill="#C2C2C8"/>
</svg>
