<svg width="18" height="18" viewBox="0 0 18 18" fill="none" xmlns="http://www.w3.org/2000/svg">
<path d="M0 9C0 6.20435 0 4.80653 0.456723 3.7039C1.06569 2.23373 2.23373 1.06569 3.7039 0.456723C4.80653 0 6.20435 0 9 0V0C11.7956 0 13.1935 0 14.2961 0.456723C15.7663 1.06569 16.9343 2.23373 17.5433 3.7039C18 4.80653 18 6.20435 18 9V9C18 11.7956 18 13.1935 17.5433 14.2961C16.9343 15.7663 15.7663 16.9343 14.2961 17.5433C13.1935 18 11.7956 18 9 18V18C6.20435 18 4.80653 18 3.7039 17.5433C2.23373 16.9343 1.06569 15.7663 0.456723 14.2961C0 13.1935 0 11.7956 0 9V9Z" fill="white"/>
<path d="M3.24923 9.0815L9 15L14.7508 9.0815C16.0033 7.79243 16.0033 5.7409 14.7508 4.45183C13.4463 3.10927 11.2906 3.10928 9.98607 4.45184L9 5.46667L8.01393 4.45184C6.70942 3.10928 4.55374 3.10927 3.24923 4.45183C1.99669 5.7409 1.99669 7.79243 3.24923 9.0815Z" stroke="#C2C2C8" stroke-width="2"/>
</svg>
