<svg width="18" height="18" viewBox="0 0 18 18" fill="none" xmlns="http://www.w3.org/2000/svg">
<path d="M0 9C0 6.20435 0 4.80653 0.456723 3.7039C1.06569 2.23373 2.23373 1.06569 3.7039 0.456723C4.80653 0 6.20435 0 9 0V0C11.7956 0 13.1935 0 14.2961 0.456723C15.7663 1.06569 16.9343 2.23373 17.5433 3.7039C18 4.80653 18 6.20435 18 9V9C18 11.7956 18 13.1935 17.5433 14.2961C16.9343 15.7663 15.7663 16.9343 14.2961 17.5433C13.1935 18 11.7956 18 9 18V18C6.20435 18 4.80653 18 3.7039 17.5433C2.23373 16.9343 1.06569 15.7663 0.456723 14.2961C0 13.1935 0 11.7956 0 9V9Z" fill="white"/>
<mask id="path-2-inside-1_117_20" fill="white">
<path fill-rule="evenodd" clip-rule="evenodd" d="M9 1C6.79086 1 5 2.79086 5 5V7C3.34315 7 2 8.34315 2 10C2 11.6569 3.34315 13 5 13H13C14.6569 13 16 11.6569 16 10C16 8.34315 14.6569 7 13 7V5C13 2.79086 11.2091 1 9 1Z"/>
</mask>
<path d="M5 7V9H7V7H5ZM13 7H11V9H13V7ZM7 5C7 3.89543 7.89543 3 9 3V-1C5.68629 -1 3 1.68629 3 5H7ZM7 7V5H3V7H7ZM4 10C4 9.44772 4.44772 9 5 9V5C2.23858 5 0 7.23858 0 10H4ZM5 11C4.44772 11 4 10.5523 4 10H0C0 12.7614 2.23858 15 5 15V11ZM13 11H5V15H13V11ZM14 10C14 10.5523 13.5523 11 13 11V15C15.7614 15 18 12.7614 18 10H14ZM13 9C13.5523 9 14 9.44772 14 10H18C18 7.23858 15.7614 5 13 5V9ZM11 5V7H15V5H11ZM9 3C10.1046 3 11 3.89543 11 5H15C15 1.68629 12.3137 -1 9 -1V3Z" fill="#C2C2C8" mask="url(#path-2-inside-1_117_20)"/>
<rect x="8" y="12" width="2" height="5" rx="1" fill="#C2C2C8"/>
</svg>
